REM DIRINDEX 1\2,1\3,1\4,1\5,1\6
REM DIRNAME "folder01","folder02","folder03","folder04","folder05","folder06"
TITLE ""
FILE "Disc5Track83.mp3" MP3
  TRACK 01 AUDIO
    TITLE "3:cjc161_10063"
    INDEX 01 00:00:00
  TRACK 02 AUDIO
    TITLE "4:cjc161_10064"
    INDEX 01 00:01:04
  TRACK 03 AUDIO
    TITLE "5:cjc161_10065"
    INDEX 01 00:02:05
  TRACK 04 AUDIO
    TITLE "0:"
    INDEX 01 00:03:18
  TRACK 05 AUDIO
    TITLE "3:cjc161_10066"
    INDEX 01 00:03:60
  TRACK 06 AUDIO
    TITLE "4:cjc161_10067"
    INDEX 01 00:04:69
  TRACK 07 AUDIO
    TITLE "5:cjc161_10068"
    INDEX 01 00:05:70
  TRACK 08 AUDIO
    TITLE "0:"
    INDEX 01 00:07:06
  TRACK 09 AUDIO
    TITLE "3:cjc161_10069"
    INDEX 01 00:07:44
  TRACK 10 AUDIO
    TITLE "4:cjc161_10070"
    INDEX 01 00:08:55
  TRACK 11 AUDIO
    TITLE "5:cjc161_10071"
    INDEX 01 00:09:48
  TRACK 12 AUDIO
    TITLE "6:cjc161_10072"
    INDEX 01 00:10:58
  TRACK 13 AUDIO
    TITLE "0:"
    INDEX 01 00:12:37
  TRACK 14 AUDIO
    TITLE "3:cjc161_10073"
    INDEX 01 00:12:70
  TRACK 15 AUDIO
    TITLE "4:cjc161_10074"
    INDEX 01 00:14:12
  TRACK 16 AUDIO
    TITLE "5:cjc161_10075"
    INDEX 01 00:15:41
  TRACK 17 AUDIO
    TITLE "0:"
    INDEX 01 00:16:60
  TRACK 18 AUDIO
    TITLE "3:cjc161_10076"
    INDEX 01 00:17:19
  TRACK 19 AUDIO
    TITLE "4:cjc161_10077"
    INDEX 01 00:18:32
  TRACK 20 AUDIO
    TITLE "5:cjc161_10078"
    INDEX 01 00:19:19
  TRACK 21 AUDIO
    TITLE "0:"
    INDEX 01 00:20:37
  TRACK 22 AUDIO
    TITLE "3:cjc161_10079"
    INDEX 01 00:20:68
  TRACK 23 AUDIO
    TITLE "4:cjc161_10080"
    INDEX 01 00:22:04
  TRACK 24 AUDIO
    TITLE "5:cjc161_10081"
    INDEX 01 00:23:11
  TRACK 25 AUDIO
    TITLE "0:"
    INDEX 01 00:24:25
  TRACK 26 AUDIO
    TITLE "3:cjc161_10082"
    INDEX 01 00:24:62
  TRACK 27 AUDIO
    TITLE "4:cjc161_10083"
    INDEX 01 00:26:04
  TRACK 28 AUDIO
    TITLE "5:cjc161_10084"
    INDEX 01 00:27:11
  TRACK 29 AUDIO
    TITLE "0:"
    INDEX 01 00:28:28
  TRACK 30 AUDIO
    TITLE "3:cjc161_10085"
    INDEX 01 00:28:61
  TRACK 31 AUDIO
    TITLE "4:cjc161_10086"
    INDEX 01 00:29:71
  TRACK 32 AUDIO
    TITLE "5:cjc161_10087"
    INDEX 01 00:30:62
  TRACK 33 AUDIO
    TITLE "6:cjc161_10088"
    INDEX 01 00:31:72
  TRACK 34 AUDIO
    TITLE "0:"
    INDEX 01 00:34:33
  TRACK 35 AUDIO
    TITLE "3:cjc161_10089"
    INDEX 01 00:34:64
  TRACK 36 AUDIO
    TITLE "4:cjc161_10090"
    INDEX 01 00:36:00
  TRACK 37 AUDIO
    TITLE "5:cjc161_10091"
    INDEX 01 00:37:15
  TRACK 38 AUDIO
    TITLE "6:cjc161_10092"
    INDEX 01 00:38:23
  TRACK 39 AUDIO
    TITLE "0:"
    INDEX 01 00:40:51
  TRACK 40 AUDIO
    TITLE "3:cjc161_10093"
    INDEX 01 00:41:09
  TRACK 41 AUDIO
    TITLE "4:cjc161_10094"
    INDEX 01 00:42:19
  TRACK 42 AUDIO
    TITLE "5:cjc161_10095"
    INDEX 01 00:43:16
  TRACK 43 AUDIO
    TITLE "0:"
    INDEX 01 00:44:23
  TRACK 44 AUDIO
    TITLE "3:cjc161_10096"
    INDEX 01 00:44:62
  TRACK 45 AUDIO
    TITLE "4:cjc161_10097"
    INDEX 01 00:45:72
  TRACK 46 AUDIO
    TITLE "5:cjc161_10098"
    INDEX 01 00:47:00
  TRACK 47 AUDIO
    TITLE "6:cjc161_10099"
    INDEX 01 00:48:07
  TRACK 48 AUDIO
    TITLE "0:"
    INDEX 01 00:50:02
  TRACK 49 AUDIO
    TITLE "3:cjc161_10100"
    INDEX 01 00:50:36
  TRACK 50 AUDIO
    TITLE "4:cjc161_10101"
    INDEX 01 00:51:43
  TRACK 51 AUDIO
    TITLE "5:cjc161_10102"
    INDEX 01 00:53:54
  TRACK 52 AUDIO
    TITLE "6:cjc161_10103"
    INDEX 01 00:54:59
  TRACK 53 AUDIO
    TITLE "0:"
    INDEX 01 00:56:52
  TRACK 54 AUDIO
    TITLE "3:cjc161_10104"
    INDEX 01 00:57:10
  TRACK 55 AUDIO
    TITLE "4:cjc161_10105"
    INDEX 01 00:58:49
  TRACK 56 AUDIO
    TITLE "5:cjc161_10106"
    INDEX 01 01:00:63
  TRACK 57 AUDIO
    TITLE "6:cjc161_10107"
    INDEX 01 01:02:25
  TRACK 58 AUDIO
    TITLE "0:"
    INDEX 01 01:04:28
  TRACK 59 AUDIO
    TITLE "3:cjc161_10108"
    INDEX 01 01:04:61
  TRACK 60 AUDIO
    TITLE "4:cjc161_10109"
    INDEX 01 01:05:74
  TRACK 61 AUDIO
    TITLE "5:cjc161_10110"
    INDEX 01 01:07:46
  TRACK 62 AUDIO
    TITLE "0:"
    INDEX 01 01:08:57
  TRACK 63 AUDIO
    TITLE "3:cjc161_10111"
    INDEX 01 01:09:17
  TRACK 64 AUDIO
    TITLE "4:cjc161_10112"
    INDEX 01 01:10:27
  TRACK 65 AUDIO
    TITLE "5:cjc161_10113"
    INDEX 01 01:12:06
  TRACK 66 AUDIO
    TITLE "0:"
    INDEX 01 01:13:15
